<svg width="8" height="8" viewBox="0 0 8 8" fill="none" xmlns="http://www.w3.org/2000/svg">
<path d="M6.52102 0.946654L6.41558 0.842455L6.31015 0.946654L4.03392 3.19614L1.75769 0.946654L1.65226 0.842455L1.54682 0.946654L0.946076 1.54034L0.838117 1.64703L0.946076 1.75372L3.21978 4.00071L0.946076 6.24771L0.838117 6.3544L0.946076 6.46109L1.54682 7.05477L1.65226 7.15897L1.75769 7.05477L4.03392 4.80529L6.31015 7.05477L6.41558 7.15897L6.52102 7.05477L7.12176 6.46109L7.22972 6.3544L7.12176 6.24771L4.84806 4.00071L7.12176 1.75372L7.22972 1.64703L7.12176 1.54034L6.52102 0.946654Z" fill="white" stroke="white" stroke-width="0.3"/>
</svg>
