<svg width="36" height="41" viewBox="0 0 36 41" fill="none" xmlns="http://www.w3.org/2000/svg">
<path d="M7.58685 5.93909L9.00881 5.1178L17.8588 0L26.7088 5.1178L35.5588 10.2424V20.2676L29.7356 16.8874V13.609L23.7972 10.1745L17.8588 6.73323L11.9204 10.1745L7.58685 12.6791V5.93909Z" fill="#DC0000"/>
<path d="M19.4608 33.2967L23.7876 30.7921L29.726 27.3577V23.6245L35.5493 27.0047V30.7243L26.6993 35.8489L25.2841 36.6701L19.4608 33.2967Z" fill="#DC0000"/>
<path d="M17.8538 40.9677L9.00382 35.8499L0.153809 30.7253V20.4829V10.2405L5.97708 6.86713V13.6072V20.4829V23.2862V27.3587L11.9155 30.7932L11.9764 30.8271L17.8538 34.2345L23.6771 37.6011L17.8538 40.9677Z" fill="black"/>
<path d="M13.4101 7.75024H7.58685V26.2463H13.4101V7.75024Z" fill="#DC0000"/>
<path d="M28.2053 31.611L25.2937 36.6677L7.58685 26.2488L10.4985 21.1989L28.2053 31.611Z" fill="#DC0000"/>
<path d="M35.5544 29.8108L18.6128 19.9689V13.2289L35.5544 23.0708V29.8108Z" fill="#DC0000"/>
</svg>
